<svg xmlns="http://www.w3.org/2000/svg" width="194.8" height="35" viewBox="0 0 194.8 35"><rect class="svg__rect" x="0" y="0" width="118.29" height="35" fill="#31C4F3"/><rect class="svg__rect" x="116.29" y="0" width="78.50999999999999" height="35" fill="#389AD5"/><path class="svg__text" d="M17.33 22L14.22 22L14.22 13.47L17.14 13.47Q18.59 13.47 19.34 14.05Q20.10 14.63 20.10 15.78L20.10 15.78Q20.10 16.36 19.78 16.83Q19.47 17.30 18.86 17.56L18.86 17.56Q19.55 17.75 19.93 18.26Q20.31 18.78 20.31 19.51L20.31 19.51Q20.31 20.71 19.53 21.36Q18.76 22 17.33 22L17.33 22ZM15.70 18.15L15.70 20.82L17.35 20.82Q18.04 20.82 18.44 20.47Q18.83 20.13 18.83 19.51L18.83 19.51Q18.83 18.18 17.47 18.15L17.47 18.15L15.70 18.15ZM15.70 14.66L15.70 17.06L17.15 17.06Q17.84 17.06 18.23 16.75Q18.62 16.43 18.62 15.86L18.62 15.86Q18.62 15.23 18.26 14.95Q17.90 14.66 17.14 14.66L17.14 14.66L15.70 14.66ZM24.64 19.16L24.64 19.16L24.64 13.47L26.12 13.47L26.12 19.18Q26.12 20.03 26.55 20.48Q26.98 20.93 27.83 20.93L27.83 20.93Q29.54 20.93 29.54 19.13L29.54 19.13L29.54 13.47L31.02 13.47L31.02 19.17Q31.02 20.53 30.15 21.32Q29.28 22.12 27.83 22.12L27.83 22.12Q26.36 22.12 25.50 21.33Q24.64 20.55 24.64 19.16ZM37.15 22L35.67 22L35.67 13.47L37.15 13.47L37.15 22ZM47.32 22L41.96 22L41.96 13.47L43.44 13.47L43.44 20.82L47.32 20.82L47.32 22ZM53.90 22L51.44 22L51.44 13.47L53.96 13.47Q55.09 13.47 55.97 13.97Q56.84 14.48 57.32 15.40Q57.81 16.33 57.81 17.52L57.81 17.52L57.81 17.95Q57.81 19.16 57.32 20.08Q56.84 21.00 55.94 21.50Q55.05 22 53.90 22L53.90 22ZM52.92 14.66L52.92 20.82L53.89 20.82Q55.06 20.82 55.68 20.09Q56.31 19.36 56.32 17.99L56.32 17.99L56.32 17.52Q56.32 16.13 55.71 15.40Q55.11 14.66 53.96 14.66L53.96 14.66L52.92 14.66ZM69.63 22L67.66 13.47L69.13 13.47L70.46 19.88L72.08 13.47L73.33 13.47L74.94 19.89L76.25 13.47L77.72 13.47L75.75 22L74.33 22L72.71 15.77L71.05 22L69.63 22ZM83.36 22L81.88 22L81.88 13.47L83.36 13.47L83.36 22ZM89.85 14.66L87.21 14.66L87.21 13.47L93.98 13.47L93.98 14.66L91.32 14.66L91.32 22L89.85 22L89.85 14.66ZM99.22 22L97.74 22L97.74 13.47L99.22 13.47L99.22 17.02L103.03 17.02L103.03 13.47L104.51 13.47L104.51 22L103.03 22L103.03 18.21L99.22 18.21L99.22 22Z" fill="#FFFFFF"/><path class="svg__text" d="M130.41 18.26L130.41 18.26L130.41 13.60L132.79 13.60L132.79 18.19Q132.79 20.20 134.38 20.20L134.38 20.20Q135.96 20.20 135.96 18.19L135.96 18.19L135.96 13.60L138.31 13.60L138.31 18.26Q138.31 20.13 137.27 21.15Q136.23 22.17 134.36 22.17L134.36 22.17Q132.48 22.17 131.44 21.15Q130.41 20.13 130.41 18.26ZM145.72 22L143.39 22L143.39 13.60L145.35 13.60L149.06 18.07L149.06 13.60L151.38 13.60L151.38 22L149.43 22L145.72 17.52L145.72 22ZM158.93 22L156.55 22L156.55 13.60L158.93 13.60L158.93 22ZM165.89 15.48L163.31 15.48L163.31 13.60L170.83 13.60L170.83 15.48L168.27 15.48L168.27 22L165.89 22L165.89 15.48ZM177.33 18.95L174.12 13.60L176.63 13.60L178.62 16.94L180.62 13.60L182.92 13.60L179.70 18.99L179.70 22L177.33 22L177.33 18.95Z" fill="#FFFFFF" x="129.29000000000002"/></svg>