<svg xmlns="http://www.w3.org/2000/svg" width="287.96999999999997" height="35" viewBox="0 0 287.96999999999997 35"><rect class="svg__rect" x="0" y="0" width="95.99" height="35" fill="#EA4560"/><rect class="svg__rect" x="93.99" y="0" width="193.98" height="35" fill="#C13B3A"/><path class="svg__text" d="M15.69 22L14.22 22L14.22 13.47L16.14 13.47L18.60 20.01L21.06 13.47L22.97 13.47L22.97 22L21.49 22L21.49 19.19L21.64 15.43L19.12 22L18.06 22L15.55 15.43L15.69 19.19L15.69 22ZM28.49 22L26.95 22L30.17 13.47L31.50 13.47L34.73 22L33.18 22L32.49 20.01L29.18 20.01L28.49 22ZM30.83 15.28L29.60 18.82L32.07 18.82L30.83 15.28ZM41.14 22L38.69 22L38.69 13.47L41.21 13.47Q42.34 13.47 43.21 13.97Q44.09 14.48 44.57 15.40Q45.05 16.33 45.05 17.52L45.05 17.52L45.05 17.95Q45.05 19.16 44.57 20.08Q44.08 21.00 43.19 21.50Q42.30 22 41.14 22L41.14 22ZM40.17 14.66L40.17 20.82L41.14 20.82Q42.30 20.82 42.93 20.09Q43.55 19.36 43.56 17.99L43.56 17.99L43.56 17.52Q43.56 16.13 42.96 15.40Q42.35 14.66 41.21 14.66L41.21 14.66L40.17 14.66ZM55.09 22L49.51 22L49.51 13.47L55.05 13.47L55.05 14.66L51.00 14.66L51.00 17.02L54.50 17.02L54.50 18.19L51.00 18.19L51.00 20.82L55.09 20.82L55.09 22ZM68.38 22L65.26 22L65.26 13.47L68.19 13.47Q69.64 13.47 70.39 14.05Q71.15 14.63 71.15 15.78L71.15 15.78Q71.15 16.36 70.83 16.83Q70.51 17.30 69.90 17.56L69.90 17.56Q70.60 17.75 70.97 18.26Q71.35 18.78 71.35 19.51L71.35 19.51Q71.35 20.71 70.58 21.36Q69.81 22 68.38 22L68.38 22ZM66.75 18.15L66.75 20.82L68.39 20.82Q69.09 20.82 69.48 20.47Q69.88 20.13 69.88 19.51L69.88 19.51Q69.88 18.18 68.52 18.15L68.52 18.15L66.75 18.15ZM66.75 14.66L66.75 17.06L68.20 17.06Q68.89 17.06 69.28 16.75Q69.67 16.43 69.67 15.86L69.67 15.86Q69.67 15.23 69.31 14.95Q68.95 14.66 68.19 14.66L68.19 14.66L66.75 14.66ZM77.86 18.86L75.00 13.47L76.64 13.47L78.61 17.51L80.57 13.47L82.21 13.47L79.35 18.86L79.35 22L77.86 22L77.86 18.86Z" fill="#FFFFFF"/><path class="svg__text" d="M107.59 21.24L107.59 21.24L108.37 19.49Q108.93 19.86 109.68 20.09Q110.42 20.32 111.14 20.32L111.14 20.32Q112.51 20.32 112.51 19.64L112.51 19.64Q112.51 19.28 112.12 19.11Q111.73 18.93 110.87 18.74L110.87 18.74Q109.92 18.53 109.28 18.30Q108.65 18.06 108.19 17.55Q107.74 17.03 107.74 16.16L107.74 16.16Q107.74 15.39 108.16 14.77Q108.58 14.15 109.41 13.79Q110.25 13.43 111.45 13.43L111.45 13.43Q112.28 13.43 113.09 13.62Q113.89 13.80 114.51 14.17L114.51 14.17L113.77 15.93Q112.57 15.28 111.44 15.28L111.44 15.28Q110.73 15.28 110.41 15.49Q110.09 15.70 110.09 16.04L110.09 16.04Q110.09 16.37 110.47 16.54Q110.86 16.71 111.71 16.89L111.71 16.89Q112.67 17.10 113.30 17.33Q113.93 17.56 114.39 18.07Q114.85 18.58 114.85 19.46L114.85 19.46Q114.85 20.21 114.43 20.83Q114.01 21.44 113.17 21.80Q112.33 22.17 111.13 22.17L111.13 22.17Q110.11 22.17 109.15 21.92Q108.19 21.67 107.59 21.24ZM119.00 17.80L119.00 17.80Q119.00 16.55 119.60 15.55Q120.21 14.56 121.27 14.00Q122.33 13.43 123.66 13.43L123.66 13.43Q124.99 13.43 126.06 14.00Q127.12 14.56 127.73 15.55Q128.33 16.55 128.33 17.80L128.33 17.80Q128.33 19.05 127.73 20.04Q127.12 21.04 126.06 21.60Q125.00 22.17 123.66 22.17L123.66 22.17Q122.33 22.17 121.27 21.60Q120.21 21.04 119.60 20.04Q119.00 19.05 119.00 17.80ZM121.40 17.80L121.40 17.80Q121.40 18.51 121.70 19.05Q122.00 19.60 122.52 19.90Q123.03 20.20 123.66 20.20L123.66 20.20Q124.30 20.20 124.82 19.90Q125.33 19.60 125.63 19.05Q125.93 18.51 125.93 17.80L125.93 17.80Q125.93 17.09 125.63 16.54Q125.33 16 124.82 15.70Q124.30 15.40 123.66 15.40L123.66 15.40Q123.03 15.40 122.51 15.70Q122.00 16 121.70 16.54Q121.40 17.09 121.40 17.80ZM132.63 17.80L132.63 17.80Q132.63 16.54 133.23 15.54Q133.83 14.55 134.88 13.99Q135.93 13.43 137.25 13.43L137.25 13.43Q138.41 13.43 139.33 13.84Q140.25 14.25 140.87 15.02L140.87 15.02L139.36 16.39Q138.54 15.40 137.38 15.40L137.38 15.40Q136.69 15.40 136.16 15.70Q135.62 16 135.33 16.54Q135.03 17.09 135.03 17.80L135.03 17.80Q135.03 18.51 135.33 19.05Q135.62 19.60 136.16 19.90Q136.69 20.20 137.38 20.20L137.38 20.20Q138.54 20.20 139.36 19.22L139.36 19.22L140.87 20.58Q140.26 21.35 139.33 21.76Q138.41 22.17 137.25 22.17L137.25 22.17Q135.93 22.17 134.88 21.61Q133.83 21.05 133.23 20.05Q132.63 19.06 132.63 17.80ZM147.78 22L145.40 22L145.40 13.60L147.78 13.60L147.78 22ZM154.37 22L151.95 22L155.66 13.60L158.00 13.60L161.72 22L159.25 22L158.59 20.37L155.04 20.37L154.37 22ZM156.81 15.93L155.73 18.61L157.89 18.61L156.81 15.93ZM167.29 22L164.86 22L168.57 13.60L170.91 13.60L174.63 22L172.16 22L171.50 20.37L167.95 20.37L167.29 22ZM169.72 15.93L168.64 18.61L170.80 18.61L169.72 15.93ZM180.20 22L177.78 22L181.48 13.60L183.83 13.60L187.54 22L185.08 22L184.41 20.37L180.86 20.37L180.20 22ZM182.64 15.93L181.55 18.61L183.72 18.61L182.64 15.93ZM193.12 22L190.69 22L194.40 13.60L196.74 13.60L200.46 22L197.99 22L197.33 20.37L193.78 20.37L193.12 22ZM195.55 15.93L194.47 18.61L196.63 18.61L195.55 15.93ZM206.03 22L203.60 22L207.31 13.60L209.66 13.60L213.37 22L210.90 22L210.24 20.37L206.69 20.37L206.03 22ZM208.47 15.93L207.38 18.61L209.55 18.61L208.47 15.93ZM218.94 22L216.52 22L220.23 13.60L222.57 13.60L226.29 22L223.82 22L223.16 20.37L219.61 20.37L218.94 22ZM221.38 15.93L220.30 18.61L222.46 18.61L221.38 15.93ZM231.86 22L229.43 22L233.14 13.60L235.48 13.60L239.20 22L236.73 22L236.07 20.37L232.52 20.37L231.86 22ZM234.30 15.93L233.21 18.61L235.37 18.61L234.30 15.93ZM244.77 22L242.35 22L246.05 13.60L248.40 13.60L252.11 22L249.65 22L248.98 20.37L245.43 20.37L244.77 22ZM247.21 15.93L246.13 18.61L248.29 18.61L247.21 15.93ZM257.69 22L255.26 22L258.97 13.60L261.31 13.60L265.03 22L262.56 22L261.90 20.37L258.35 20.37L257.69 22ZM260.12 15.93L259.04 18.61L261.20 18.61L260.12 15.93ZM275.57 22L269.18 22L269.18 13.60L271.56 13.60L271.56 20.11L275.57 20.11L275.57 22Z" fill="#FFFFFF" x="106.99"/></svg>